<?xml version="1.0" encoding="utf-8"?>
<svg xmlns="http://www.w3.org/2000/svg"
	xmlns:xlink="http://www.w3.org/1999/xlink"
	width="48px" height="84px" viewBox="0 0 24 42">
<path fillRule="evenodd" d="M 1.05 5.27C 1.05 5.27 16.76 20.99 16.76 20.99 16.76 20.99 0.84 36.92 0.84 36.92 0.84 36.92 0.84 36.92 0.84 36.92 0.32 37.46-0 38.19-0 39-0 40.66 1.34 42 3 42 3.81 42 4.54 41.68 5.08 41.16 5.08 41.16 5.08 41.16 5.08 41.16 5.08 41.16 23.08 23.16 23.08 23.16 23.08 23.16 23.08 23.16 23.08 23.16 23.65 22.61 24 21.85 24 21 24 21 24 21 24 20.99 24 20.99 24 20.99 24 20.99 24 20.14 23.65 19.37 23.08 18.83 23.08 18.83 23.08 18.83 23.08 18.83 23.08 18.83 5.08 0.83 5.08 0.83 5.08 0.83 5.08 0.83 5.08 0.83 4.54 0.32 3.81 0 3 0 1.34 0-0 1.34-0 3-0 3.91 0.41 4.72 1.05 5.27Z" fill="rgb(255,255,255)"/></svg>